<svg width="280" height="31" viewBox="0 0 280 31" fill="none" xmlns="http://www.w3.org/2000/svg">
<g clip-path="url(#clip0_7860_1775)">
<g clip-path="url(#clip1_7860_1775)">
<path d="M143.183 0.511719C140.996 0.511719 138.962 1.4545 137.021 2.34799C134.883 3.43867 132.547 4.18427 130.169 4.13497C130.07 5.57688 130.07 7.01879 130.07 8.45454C130.169 13.3225 131.161 18.3384 133.798 22.4608C136.084 26.1395 139.658 28.8692 143.485 30.8041C147.312 28.8692 150.836 26.1333 153.172 22.4608C155.803 18.2891 156.795 13.3225 156.9 8.45454C156.9 7.01263 156.9 5.57072 156.801 4.13497C154.416 4.13497 152.032 3.43867 149.949 2.34799C148.014 1.40521 145.974 0.511719 143.787 0.511719H143.189H143.183Z" fill="black"/>
<path d="M143.281 1.84863C140.502 1.84863 138.068 3.48772 135.529 4.47981C134.235 4.97893 132.849 5.324 131.407 5.42259C131.21 10.6356 131.752 16.0027 134.235 20.6735C136.324 24.4016 139.652 27.3285 143.423 29.2695C147.2 27.3347 150.528 24.4016 152.611 20.6735C155.094 16.0027 155.692 10.6418 155.439 5.42259C154.046 5.324 152.66 4.97277 151.317 4.47981C148.784 3.48772 146.35 1.89793 143.565 1.84863H143.17H143.269H143.281Z" fill="white"/>
<path d="M143.282 3.53711C140.454 3.685 138.118 5.37339 135.481 6.26688C134.686 6.51336 133.891 6.766 133.047 6.91389C133.047 11.5847 133.694 16.3541 136.079 20.4272C137.816 23.3603 140.447 25.6402 143.43 27.3348C146.412 25.6464 148.994 23.3603 150.781 20.4272C153.166 16.3541 153.862 11.5354 153.813 6.91389C152.969 6.766 152.174 6.56881 151.379 6.26688C148.797 5.37339 146.412 3.6357 143.578 3.53711H143.233H143.282Z" fill="black"/>
<path d="M143.479 5.97168L141.692 11.536H135.832L140.601 15.0113L138.765 20.6249L143.535 17.1495L148.304 20.6249L146.468 15.0113L151.237 11.536H145.377L143.59 5.97168H143.491H143.479Z" fill="white"/>
<path d="M109.236 30.7359V13.8027" stroke="#B7B7B7" stroke-width="1.3618"/>
<path d="M17.3608 1.78082C17.2622 0.683982 16.4611 0 15.2719 0C15.1733 0 15.0377 0 14.896 0.018486C13.9101 0.141726 13.1645 0.794898 12.7454 1.90406C12.4435 2.69279 12.4065 3.45688 12.4065 3.54315L12.3819 4.04227C12.2402 4.27027 12.1292 4.51675 12.0553 4.76939C11.8458 5.47802 11.5931 6.63031 11.55 8.09071L11.5377 8.47275C11.3343 8.7562 11.1556 9.07663 11.0078 9.4217C10.8229 9.8592 10.6688 10.2967 10.5271 10.8759L10.4224 8.81782C10.41 8.01676 9.79384 2.98857 9.30088 1.26937C9.09754 0.566904 8.42588 0.129402 7.55088 0.129402C7.13186 0.129402 6.66971 0.221832 6.29383 0.382044C4.33431 1.22624 4.49453 3.68488 4.90122 5.00971L5.04294 5.46569C5.02446 5.58893 5.0183 5.71217 5.0183 5.84158C5.03678 6.66728 5.2278 7.5238 5.64682 9.12592L5.77006 9.60656C5.67763 9.86536 5.62217 10.1365 5.60985 10.4076C5.57904 11.0793 5.59752 11.7694 5.66531 12.4719C5.59136 12.4534 5.51742 12.4411 5.44347 12.4288C5.41266 12.4226 5.38185 12.4164 5.34488 12.4164C5.23397 12.3979 5.13537 12.3918 5.04294 12.3918H4.97516C4.91354 12.3918 4.85808 12.3918 4.82111 12.3979H4.80879C4.77182 12.3979 4.70403 12.3979 4.62393 12.4103C4.55615 12.4226 4.50069 12.4288 4.46372 12.4411C4.4021 12.4534 4.29734 12.478 4.18026 12.515C4.01389 12.5766 3.866 12.6444 3.7366 12.7307L3.71811 12.743H3.70579L3.69347 12.7615L3.67498 12.7738C3.22515 13.1066 2.78765 13.4886 2.58431 14.0124C2.44258 14.3821 2.41177 14.795 2.49188 15.2941C2.4549 15.2941 2.41793 15.2941 2.38096 15.2941C2.01124 15.2941 1.64152 15.3865 1.29029 15.5775C0.93289 15.7686 0.723382 16.0335 0.538522 16.2738L0.476902 16.3539C-0.219404 17.2351 0.144154 18.4737 0.483064 19.3302V19.3487C0.483064 19.3487 0.50155 19.3733 0.50155 19.3795C0.526198 19.4411 0.550846 19.5089 0.575494 19.5705L0.53236 20.273C0.50155 20.8769 0.74803 21.5855 1.06845 22.4543C1.15472 22.6762 1.24715 22.9288 1.2718 23.0336C1.65384 24.5617 2.30702 25.7695 3.20667 26.6198L3.23132 30.0151C3.23132 30.1691 3.35456 30.2924 3.50861 30.2924H14.4153C14.5632 30.2862 14.6803 30.163 14.6803 30.0151C14.6803 30.0089 14.6803 30.0028 14.6803 29.9966C14.6803 29.9905 14.6803 29.9843 14.6803 29.9781L14.1442 26.2131C14.9021 25.1656 15.469 23.6867 15.771 21.9244C16.2393 19.2008 16.0236 16.1136 15.1979 13.6365C15.3396 12.8601 15.5676 11.7633 15.8141 10.611L15.8264 10.5678C15.9558 9.95779 16.0852 9.32927 16.2023 8.75004C16.2578 8.49124 16.3071 8.22627 16.3625 7.96747C16.4118 7.71482 16.4611 7.45602 16.5104 7.20338C16.5597 6.95074 16.609 6.69809 16.6522 6.45161C16.7323 6.01411 16.8185 5.53964 16.911 5.00354C16.9911 4.54139 17.0712 4.10389 17.1389 3.6972L17.1513 3.61709C17.2191 3.25354 17.2745 2.92079 17.3238 2.63117C17.3423 2.52642 17.3546 2.43399 17.3669 2.3354C17.3793 2.21216 17.3854 2.09508 17.3854 1.978C17.3854 1.91022 17.3854 1.83628 17.3731 1.77466L17.3608 1.78082ZM16.8925 2.30459C16.8863 2.39086 16.874 2.47096 16.8555 2.56339C16.8 2.87765 16.7384 3.23505 16.6706 3.63558C16.5967 4.03611 16.5227 4.47361 16.4426 4.93576C16.3625 5.39791 16.2763 5.88471 16.1838 6.37767C16.1345 6.62415 16.0914 6.87679 16.0421 7.12943C15.9928 7.38208 15.9435 7.63472 15.8942 7.88736C15.8449 8.14616 15.7895 8.40497 15.734 8.66993C15.6108 9.26765 15.4814 9.90233 15.3458 10.5309C15.087 11.7448 14.8467 12.8909 14.705 13.6796C15.543 16.1075 15.7648 19.1577 15.2965 21.8566C14.9822 23.6621 14.4092 25.1225 13.6389 26.1022L13.6882 26.4227L14.175 29.8426H13.5465L13.0351 26.5151C12.616 26.78 12.1785 26.9464 11.7903 27.0573C11.7349 27.0758 11.6794 27.0882 11.624 27.1005C11.6733 27.082 11.7164 27.0697 11.7595 27.0512C13.2631 26.398 14.3229 23.9948 14.705 21.1418C14.7358 20.9138 14.7604 20.6797 14.7789 20.4394C14.7912 20.3346 14.7974 20.2298 14.8036 20.1251C14.822 19.8786 14.8344 19.6321 14.8405 19.3857V19.3733C14.896 17.4569 14.6495 15.4543 14.0271 13.7351C14.1381 13.0634 14.3414 12.0837 14.5632 11.0238C14.5756 10.9684 14.5879 10.9067 14.6002 10.8513C14.6495 10.611 14.6988 10.3768 14.7543 10.1365C14.7912 9.95779 14.8282 9.77909 14.8652 9.6004C14.9391 9.243 15.0131 8.89177 15.0808 8.55286C15.1363 8.29405 15.1856 8.03525 15.2349 7.77644C15.2349 7.75796 15.2411 7.73947 15.2472 7.71482C15.2903 7.48067 15.3396 7.24651 15.3828 7.01852C15.4321 6.76588 15.4752 6.5194 15.5245 6.27292C15.5492 6.14968 15.5738 6.02644 15.5923 5.9032C15.6169 5.77996 15.6354 5.65672 15.6601 5.53964C15.6847 5.41024 15.7094 5.28083 15.7279 5.15143C15.7463 5.04052 15.7648 4.93576 15.7833 4.83101C15.8203 4.6215 15.8573 4.41815 15.8942 4.21481C15.9374 3.96217 15.9805 3.72185 16.0175 3.49385C16.0852 3.11181 16.1407 2.76058 16.1962 2.45864C16.1962 2.44015 16.1962 2.42167 16.2023 2.40934C16.2085 2.36005 16.2208 2.30459 16.227 2.24913C16.227 2.21216 16.2331 2.17519 16.2393 2.13205C16.2393 2.09508 16.2393 2.05195 16.2393 2.00881C16.2393 1.99649 16.2393 1.978 16.2393 1.96568C16.2393 1.94103 16.2393 1.91638 16.2393 1.88557C16.2085 1.5405 16.0421 1.20159 15.5368 1.11532H15.506C15.4321 1.103 15.3581 1.09684 15.2719 1.09684C15.1979 1.09684 15.124 1.09684 15.0439 1.10916C14.4523 1.1831 14.0949 1.62677 13.8731 2.11973C13.8484 2.16902 13.83 2.22448 13.8053 2.27378C13.7745 2.34772 13.7498 2.42167 13.7252 2.49561C13.7006 2.56955 13.6821 2.6435 13.6636 2.71128C13.6328 2.81603 13.6143 2.92079 13.5958 3.01322C13.5896 3.05019 13.5835 3.08716 13.5773 3.11797C13.5712 3.16727 13.565 3.21656 13.5527 3.2597C13.5465 3.32132 13.5403 3.37061 13.5342 3.41375C13.5342 3.45072 13.528 3.48153 13.528 3.50618C13.528 3.53699 13.528 3.55547 13.528 3.5678V3.58628C13.5588 3.57396 13.5958 3.5678 13.6266 3.55547C13.6697 3.54315 13.7129 3.53699 13.756 3.52466C13.8361 3.51234 13.9162 3.50002 13.9963 3.48769C14.0271 3.48769 14.0518 3.48153 14.0826 3.47537C14.0949 3.47537 14.1011 3.47537 14.1134 3.47537C14.2366 3.46304 14.366 3.45688 14.4831 3.45688H14.5201C14.5201 3.45688 14.5447 3.45688 14.5571 3.45688C14.6002 3.45688 14.6433 3.45688 14.6865 3.45688C14.7296 3.45688 14.7727 3.46304 14.8159 3.46921V3.69104C14.8159 3.69104 14.8097 3.69104 14.8036 3.69104C14.0148 3.78963 13.3555 4.32572 13.1398 5.06516C13.0905 5.23154 13.0412 5.4164 12.9919 5.62591C12.9796 5.6752 12.9673 5.73682 12.955 5.79228C12.8564 6.23594 12.7701 6.7782 12.7208 7.3944C12.7023 7.62239 12.69 7.86887 12.6777 8.12152C12.8009 8.04757 12.955 7.99211 13.1213 7.94898C13.1275 7.94898 13.1336 7.94898 13.1398 7.94898C13.1398 7.94898 13.146 7.94898 13.1521 7.94898C13.2138 7.93049 13.2754 7.91201 13.3432 7.89968C13.4294 7.8812 13.5157 7.86887 13.6081 7.85655C13.719 7.84423 13.8238 7.8319 13.9285 7.82574C13.9532 7.82574 13.9778 7.82574 14.0025 7.81958C14.0456 7.81958 14.0949 7.81342 14.1319 7.81342V8.07838C14.1319 8.07838 14.1134 8.07838 14.0888 8.07838C14.0579 8.07838 14.0087 8.08454 13.9409 8.10303C13.8793 8.11535 13.7991 8.13384 13.7129 8.16465C13.5219 8.22627 13.3432 8.30638 13.1768 8.40497C13.0227 8.50356 12.8748 8.60831 12.7454 8.73772C12.5359 8.94106 12.3634 9.18138 12.234 9.44635C12.2093 9.48948 12.1909 9.53878 12.1724 9.57575C12.1601 9.6004 12.1477 9.61888 12.1416 9.64353C12.1108 9.70515 12.0861 9.77293 12.0553 9.84071C12.0122 9.94547 11.9629 10.0564 11.9259 10.1611C11.9012 10.2289 11.8766 10.2967 11.852 10.3706C11.8396 10.4138 11.8211 10.4508 11.8088 10.4939C11.7965 10.5247 11.7903 10.5555 11.778 10.5925C11.7595 10.6541 11.7349 10.7219 11.7164 10.7897C11.7041 10.8205 11.6979 10.8574 11.6856 10.8944C11.6671 10.9622 11.6486 11.0361 11.6301 11.1101C11.6116 11.1717 11.5931 11.2456 11.5808 11.3134C11.5808 11.3319 11.5747 11.3442 11.5685 11.3627C11.5439 11.4613 11.5192 11.5661 11.4946 11.677C11.4822 11.7386 11.4699 11.8002 11.4514 11.868C11.4391 11.9481 11.4206 12.0344 11.4021 12.1207C11.3898 12.1699 11.3836 12.2192 11.3713 12.2685C11.322 12.5212 11.2666 12.7923 11.2173 13.0942C11.0201 13.2421 10.8291 13.4023 10.638 13.5687H10.6319C10.5394 13.6612 10.4532 13.7413 10.3669 13.8275C10.1697 14.0185 9.99103 14.2034 9.83082 14.3821C9.67061 14.5546 9.53504 14.7149 9.42413 14.8443C9.26391 15.0353 9.17148 15.1524 9.16532 15.1524L8.90652 15.0723C8.99895 14.9244 9.08522 14.7765 9.17148 14.6409C9.39332 14.2835 9.55969 13.9939 9.55969 13.9939L9.30088 8.86096C9.30088 8.82398 9.30088 8.77469 9.30088 8.70691C9.30088 8.6761 9.30089 8.63296 9.29472 8.59599C9.29472 8.53437 9.2824 8.46659 9.27624 8.38648C9.20845 7.6532 9.04208 6.26059 8.8449 4.89263C8.83257 4.80636 8.82025 4.72625 8.80793 4.63999C8.80176 4.57837 8.78944 4.51675 8.78328 4.45513C8.77095 4.36886 8.75863 4.28875 8.74631 4.20248C8.73398 4.14086 8.72782 4.07924 8.7155 4.01762C8.70317 3.93752 8.69085 3.85741 8.67852 3.77731C8.67852 3.76498 8.67852 3.75266 8.67236 3.73417C8.66004 3.6479 8.64155 3.56164 8.62923 3.48153C8.59842 3.30283 8.56761 3.12413 8.5368 2.9516C8.52447 2.87149 8.50599 2.79755 8.49366 2.71744C8.47518 2.63117 8.46285 2.54491 8.44437 2.45864C8.43821 2.42167 8.43204 2.38469 8.41972 2.34772C8.4074 2.30459 8.40123 2.26145 8.39507 2.21832C8.38275 2.15054 8.36426 2.08892 8.35194 2.0273C8.33961 1.95952 8.32113 1.8979 8.3088 1.83628C8.29032 1.77466 8.27799 1.71304 8.25951 1.65758C8.25335 1.63293 8.24718 1.60212 8.23486 1.57747C8.22254 1.54666 8.21021 1.51585 8.19789 1.4912C8.13627 1.38645 8.03151 1.31867 7.89595 1.27553C7.79736 1.24472 7.68644 1.2324 7.56936 1.2324C7.39067 1.2324 7.20581 1.26321 7.03943 1.30018C6.94084 1.32483 6.84841 1.35564 6.7683 1.39261C6.07816 1.68839 5.844 2.36005 5.79471 3.02554C5.79471 3.12413 5.78855 3.21656 5.78855 3.30899C5.78855 3.49385 5.80087 3.67871 5.82552 3.84509C5.83784 3.91903 5.844 3.99298 5.85633 4.06692C5.85633 4.07924 5.85633 4.08541 5.85633 4.09773C5.88098 4.23329 5.89946 4.35037 5.92411 4.44896C5.93643 4.50442 5.94876 4.55988 5.96108 4.60301C5.97341 4.63999 5.97957 4.6708 5.98573 4.68928C5.99189 4.70777 5.99805 4.72009 5.99805 4.72009C6.072 4.6708 6.15827 4.61534 6.2507 4.5722C6.56496 4.40583 6.97165 4.27643 7.45229 4.27643H7.49542L7.4831 4.40583L7.47077 4.53523C7.26126 4.53523 7.06408 4.58453 6.89154 4.66463C6.86073 4.67696 6.82376 4.69544 6.79295 4.71393C6.73133 4.7509 6.67587 4.78787 6.62658 4.83101C6.4602 4.96041 6.33696 5.13295 6.25686 5.33013C6.19524 5.48418 6.15827 5.65672 6.16443 5.83541C6.17059 6.18665 6.21989 6.55637 6.31232 7.03084C6.36161 7.27116 6.42323 7.52996 6.49101 7.83806C6.51566 7.93049 6.54031 8.02292 6.56496 8.12152C6.62042 8.34951 6.6882 8.60215 6.76214 8.87328C7.10105 8.74388 7.52623 8.65761 7.82817 8.60831C8.01919 8.5775 8.16092 8.55902 8.20405 8.55902L8.26567 8.87328C8.26567 8.87328 8.24102 8.87328 8.23486 8.87328H8.2287C8.19173 8.87944 8.15475 8.8856 8.11778 8.89793C8.10546 8.89793 8.09313 8.89793 8.08697 8.90409C7.79736 8.97187 7.53855 9.1136 7.32905 9.29846C7.32905 9.30462 7.31672 9.31078 7.31056 9.31078C7.29207 9.32927 7.27359 9.34775 7.2551 9.36624C7.23662 9.38473 7.22429 9.39705 7.20581 9.41554C7.20581 9.4217 7.19348 9.42786 7.18732 9.43402C6.94084 9.71131 6.78063 10.0687 6.7683 10.4569C6.7683 10.4569 6.7683 10.4569 6.7683 10.4692C6.7683 10.5247 6.7683 10.5802 6.7683 10.6356C6.7683 10.6787 6.7683 10.7219 6.7683 10.765C6.7683 10.8205 6.7683 10.8759 6.7683 10.9314C6.7683 10.9745 6.7683 11.0238 6.7683 11.067C6.7683 11.1224 6.7683 11.1717 6.7683 11.221C6.7683 11.2641 6.7683 11.3134 6.7683 11.3566V11.5045C6.7683 11.5476 6.77447 11.5969 6.78063 11.64C6.78063 11.6893 6.78063 11.7386 6.78679 11.7879C6.78679 11.831 6.78679 11.8803 6.79295 11.9235C6.79295 11.9728 6.79911 12.0159 6.80528 12.0652C6.80528 12.1083 6.80528 12.1515 6.81144 12.1946C6.81144 12.2439 6.8176 12.287 6.82376 12.3302C6.82376 12.3733 6.82992 12.4164 6.83609 12.4596C6.83609 12.5089 6.84225 12.552 6.84841 12.6013C6.84841 12.6383 6.85457 12.6814 6.86073 12.7184C6.86073 12.7615 6.87306 12.8046 6.87306 12.8478C6.87306 12.8847 6.88538 12.9279 6.88538 12.971C6.88538 13.008 6.89771 13.0511 6.89771 13.0881C6.89771 13.1251 6.91003 13.1682 6.91619 13.2113C6.91619 13.2483 6.92852 13.2853 6.93468 13.3222C6.93468 13.3592 6.947 13.4023 6.95316 13.4393C6.95933 13.4763 6.96549 13.5071 6.97165 13.5441C6.97781 13.581 6.98397 13.618 6.99014 13.655C6.9963 13.7043 7.00862 13.7536 7.01478 13.8029C7.01478 13.8214 7.02095 13.8399 7.02711 13.8645C7.06408 14.0617 7.10105 14.2404 7.13186 14.3944L7.06408 14.3451L6.95316 14.2712C6.84841 14.2034 6.74982 14.148 6.65123 14.0863C6.64506 14.0802 6.63274 14.074 6.62658 14.0678C6.59577 14.0494 6.5588 14.0247 6.52799 14.0062C6.52182 14.0062 6.51566 14.0001 6.5095 13.9939C6.5095 13.9939 6.4602 13.9693 6.43556 13.9508C6.37394 13.92 6.31232 13.8891 6.25686 13.8522C6.19524 13.8214 6.13978 13.7967 6.08432 13.7659C6.06584 13.7597 6.05351 13.7536 6.03503 13.7474C5.91179 13.692 5.79471 13.6488 5.67763 13.6057C5.67147 13.6057 5.66531 13.6057 5.65914 13.6057C5.64682 13.6057 5.62833 13.5995 5.61601 13.5934C5.51126 13.5626 5.4065 13.5379 5.30791 13.5194C5.30175 13.5194 5.28942 13.5194 5.28326 13.5194C5.2771 13.5194 5.27094 13.5194 5.26478 13.5194C5.19083 13.5133 5.12305 13.5009 5.06143 13.5009C5.06143 13.5009 5.06143 13.5009 5.05527 13.5009H5.03062C5.03062 13.5009 4.99981 13.5009 4.98132 13.5009C4.969 13.5009 4.95051 13.5009 4.93203 13.5009C4.90122 13.5009 4.86425 13.5009 4.83344 13.5071C4.80879 13.5071 4.78414 13.5133 4.75949 13.5194C4.7102 13.5256 4.6609 13.5379 4.61777 13.5564C4.58079 13.5687 4.54382 13.581 4.51301 13.5995C4.4822 13.6119 4.44523 13.6365 4.41442 13.655C4.34664 13.7043 4.27886 13.7536 4.20491 13.8152C4.14945 13.8583 4.10016 13.9076 4.0447 13.9508C3.89065 14.0925 3.74892 14.2527 3.6873 14.4129C3.6072 14.6101 3.6072 14.8689 3.66266 15.1708C3.67498 15.2201 3.68114 15.2756 3.69347 15.3249C3.71811 15.4296 3.74892 15.5406 3.7859 15.6576C3.80438 15.7131 3.82287 15.7747 3.84752 15.8363C3.89065 15.9596 3.93995 16.0828 3.9954 16.2122C4.07551 16.4032 4.16794 16.6066 4.26653 16.8223C4.29734 16.8962 4.33431 16.964 4.37129 17.0379C4.41442 17.0318 4.45139 17.0194 4.49453 17.0133C4.59928 16.9886 4.70403 16.9701 4.80263 16.9455C4.80263 16.9455 4.85192 16.9393 4.87657 16.9332C4.9197 16.927 4.95668 16.9209 4.99981 16.9147C5.09224 16.8962 5.18467 16.8839 5.27094 16.8777C5.27094 16.8777 5.28942 16.8777 5.29559 16.8777C5.43115 16.8592 5.56671 16.8531 5.69612 16.8469C5.70844 16.8469 5.72076 16.8469 5.73309 16.8469C5.75774 16.8469 5.78238 16.8469 5.80703 16.8469H5.90562C5.97957 16.8469 6.05967 16.8469 6.13362 16.8469C6.13978 16.8469 6.24453 16.8469 6.25686 16.8469C6.39242 16.8592 6.53415 16.8654 6.67587 16.89H6.71285C6.71285 16.89 6.73749 16.8962 6.74982 16.8962C6.91619 16.9209 7.08873 16.9517 7.27359 16.9886C7.27359 16.9886 7.16267 16.1937 6.70668 15.4974C6.6882 15.4728 6.66971 15.442 6.65123 15.4173L6.70668 15.405L6.95933 15.3557C7.00862 15.3988 7.05176 15.442 7.09489 15.4913C7.16883 15.5714 7.24278 15.6515 7.3044 15.7316C7.34137 15.7747 7.37218 15.824 7.40915 15.8671C7.4338 15.9041 7.45845 15.9349 7.4831 15.9719C7.50158 15.9966 7.52007 16.0274 7.53855 16.052C7.9206 16.6312 8.11778 17.1797 8.11778 17.1797C8.26567 17.192 8.41972 17.2105 8.57377 17.2351C8.86338 17.2844 9.16532 17.3584 9.46726 17.4508C9.59666 17.4878 9.72606 17.5309 9.85547 17.574L13.4294 19.0159L13.4109 19.207L13.3986 19.3672L9.65212 18.0978C9.65212 18.0978 9.62747 18.0916 9.62131 18.0855C9.4611 18.0177 9.30089 17.9622 9.13451 17.9129C9.04824 17.8883 8.96198 17.8636 8.87571 17.8452C8.81409 17.8328 8.72782 17.8143 8.62307 17.802C8.59842 17.802 8.57377 17.7959 8.54296 17.7897C8.51215 17.7897 8.48134 17.7835 8.44437 17.7774C8.38891 17.7774 8.33961 17.765 8.28416 17.7589C8.24718 17.7589 8.21021 17.7527 8.17324 17.7466C8.13627 17.7466 8.10546 17.7404 8.06848 17.7342C8.0007 17.7219 7.92676 17.7157 7.85282 17.7034C7.77887 17.6973 7.70493 17.6849 7.63098 17.6726C7.55704 17.6603 7.4831 17.6541 7.40915 17.6418C7.1257 17.5925 6.82992 17.5371 6.54031 17.4939C6.31848 17.4569 6.09665 17.4323 5.87481 17.42C5.80087 17.42 5.72693 17.4138 5.65914 17.4138C5.59752 17.4138 5.5359 17.4138 5.47428 17.4138C5.10456 17.4323 4.78414 17.5062 4.51917 17.6233C4.44523 17.6541 4.37745 17.6911 4.31583 17.7281C4.26037 17.7589 4.21107 17.7959 4.16178 17.8267C3.81671 18.0855 3.63801 18.4367 3.66266 18.8372C3.67498 19.0036 3.71811 19.17 3.79822 19.3364L5.35721 19.4349C5.35721 19.3918 5.36337 19.3487 5.36953 19.3055C5.36953 19.2624 5.38185 19.2193 5.38802 19.1761C5.41883 18.9851 5.46812 18.8003 5.54207 18.6216C5.57904 18.5353 5.62217 18.449 5.66531 18.3628C5.68379 18.3381 5.69612 18.3073 5.7146 18.2827H6.07816C5.93643 18.5538 5.86865 18.8249 5.844 19.0714C5.83168 19.17 5.82552 19.2624 5.82552 19.3487C5.82552 19.743 5.91179 20.0142 5.91179 20.0142L5.75157 20.0019H5.61601L4.20491 19.9033C4.24188 19.9402 4.27886 19.9772 4.32199 20.008C4.50685 20.1682 4.71636 20.2915 4.94435 20.3777C5.01213 20.4024 5.07375 20.4209 5.14154 20.4394C5.55439 20.5318 6.01038 20.6242 6.32464 20.6673C6.42939 20.6797 6.54031 20.6858 6.64506 20.6858C6.76214 20.6858 6.87922 20.6797 7.00246 20.6673C7.03943 20.6673 7.08257 20.655 7.11954 20.655C7.09489 20.6242 7.0764 20.5934 7.05792 20.5626C7.02095 20.501 6.99014 20.4394 6.96549 20.3716C6.94084 20.3038 6.92852 20.2422 6.91619 20.1744C6.90387 20.1128 6.89771 20.0511 6.89771 19.9895C6.89771 19.9587 6.89771 19.9279 6.89771 19.9033C6.89771 19.6753 6.947 19.5151 6.947 19.5151C7.04559 19.7554 7.175 19.9649 7.31672 20.1497C7.31672 20.1497 7.31672 20.1497 7.31672 20.1559C7.53855 20.4394 7.81584 20.6673 8.12394 20.8584L10.6997 22.4667L10.5887 22.5899L10.1266 22.3927L9.5905 22.1647C9.43645 22.0969 9.27624 22.0661 9.12219 22.0661C8.86338 22.0661 8.6169 22.1462 8.41356 22.2941C8.41356 22.2941 8.4074 22.3003 8.40123 22.3064C8.37659 22.3188 8.3581 22.3372 8.33961 22.3557C8.32113 22.3681 8.3088 22.3804 8.29032 22.3989C8.29032 22.405 8.27799 22.4112 8.27183 22.4174C8.19173 22.5036 8.11778 22.5961 8.06848 22.707C8.06848 22.707 8.06848 22.7131 8.06848 22.7193C8.05616 22.7439 8.04384 22.7686 8.03768 22.7932C8.03151 22.8117 8.02535 22.8364 8.01303 22.8549C8.01303 22.861 8.00687 22.8733 8.0007 22.8857C8.0007 22.8857 8.0007 22.8918 8.0007 22.898C7.92676 23.163 7.87746 23.4341 7.85898 23.7114C7.85898 23.7792 7.85282 23.8469 7.85282 23.9147C7.85282 23.9825 7.85282 24.0503 7.85282 24.1181C7.85898 24.2536 7.8713 24.3892 7.89595 24.5186C7.94525 24.8513 8.05616 25.1718 8.21637 25.4552C8.24718 25.5107 8.28416 25.5661 8.32113 25.6216C8.39507 25.7325 8.47518 25.8373 8.56761 25.9297C8.925 26.3179 9.42413 26.589 9.96022 26.7554L10.2252 26.8355L9.71374 28.3206C9.71374 28.3206 9.70142 28.3329 9.69525 28.3329C9.68293 28.3329 9.67677 28.3267 9.67677 28.3144L9.55353 27.3038C9.07289 27.1313 8.6169 26.8786 8.23486 26.5336L8.2287 26.5274C8.17324 26.4781 8.12394 26.4227 8.06848 26.3672C7.7419 26.0221 7.50774 25.6031 7.36602 25.1594C7.3044 24.9807 7.26126 24.7959 7.23045 24.611C7.13186 23.9702 7.18732 23.3293 7.35369 22.7255C7.36602 22.67 7.3845 22.6145 7.40299 22.5591C7.4338 22.4482 7.47693 22.3372 7.52007 22.2263C7.55704 22.1339 7.59401 22.0415 7.63715 21.9552C7.65563 21.9121 7.68028 21.8751 7.69877 21.832C7.73574 21.758 7.77271 21.6841 7.81584 21.6101C7.82201 21.5916 7.83433 21.5793 7.84665 21.5608C7.8713 21.5239 7.88979 21.4807 7.91443 21.4438L7.88363 21.4314L7.6125 21.2096C7.53855 21.2404 7.40915 21.2774 7.27975 21.302C7.2551 21.302 7.23045 21.3082 7.19964 21.3144C7.15035 21.3205 7.10105 21.3267 7.05176 21.3267C6.97165 21.3267 6.89154 21.3267 6.80528 21.3144C6.76214 21.3144 6.71901 21.3082 6.68204 21.302C6.60809 21.2959 6.52799 21.2835 6.45404 21.2774C6.36161 21.2651 6.27534 21.2466 6.19524 21.2343C6.16443 21.2343 6.13978 21.2219 6.10897 21.2158C6.12129 21.302 6.12129 21.3821 6.12129 21.4622C6.12129 21.4992 6.12129 21.5362 6.12129 21.5732C6.09048 22.0291 5.88098 22.3619 5.55439 22.5652C5.52974 22.5776 5.51126 22.5899 5.49277 22.6022C5.43731 22.633 5.36953 22.6638 5.30791 22.6823C5.20932 22.7193 5.11073 22.7439 4.99981 22.7624C4.91354 22.7748 4.81495 22.7809 4.72252 22.7809C4.5315 22.7809 4.32815 22.7624 4.12481 22.7008C2.48571 22.2202 1.72779 20.3531 1.72779 20.3531C1.72163 20.464 1.73395 20.5996 1.76476 20.7475C1.77708 20.8091 1.78941 20.8707 1.80789 20.9323C1.82022 20.9878 1.8387 21.0432 1.85103 21.0987C1.94346 21.4191 2.07286 21.7642 2.18994 22.0723C2.30085 22.3681 2.39945 22.6269 2.44258 22.7932C2.83695 24.3769 3.49012 25.4367 4.15562 26.0714C4.29734 26.2008 4.43907 26.3117 4.58079 26.4227C5.56055 27.2052 7.0764 27.2668 7.0764 27.2668L4.60544 27.2853L4.46372 29.8487H3.77357V29.8241L3.74892 26.435C2.84311 25.6401 2.18994 24.4693 1.80789 22.9411C1.77708 22.8117 1.68465 22.5714 1.58606 22.3126C1.27796 21.4931 1.04997 20.8337 1.07462 20.3161L1.11775 19.5151C1.08078 19.4288 1.04997 19.3425 1.01916 19.2501C1.01916 19.2378 1.00683 19.2131 0.99451 19.1885C0.698734 18.4367 0.365986 17.3522 0.920566 16.6497L0.982186 16.5696C1.15472 16.3478 1.31493 16.1444 1.58606 16.0027C1.87568 15.8487 2.16529 15.7747 2.4549 15.7747C2.72603 15.7747 2.991 15.8425 3.22515 15.9719C2.96019 15.2017 2.92938 14.6409 3.10191 14.1972C3.26213 13.7844 3.64417 13.4516 4.03854 13.162L4.05702 13.1497L4.07551 13.1374C4.1741 13.0758 4.28502 13.0203 4.41442 12.971C4.50069 12.9402 4.58079 12.9217 4.63625 12.9094H4.64858C4.68555 12.8971 4.72252 12.8909 4.75949 12.8847C4.81495 12.8786 4.86425 12.8786 4.89506 12.8724H4.93203C4.969 12.8724 5.00597 12.8724 5.04911 12.8724H5.0984C5.17851 12.8724 5.25861 12.8847 5.36337 12.8971C5.38802 12.8971 5.41266 12.8971 5.43731 12.9094C5.57904 12.934 5.72693 12.971 5.88714 13.0203H5.90562C6.0227 13.0634 6.14594 13.1127 6.28151 13.1682C6.17675 12.3733 6.10897 11.449 6.1521 10.4569C6.16443 10.1796 6.22605 9.9085 6.3308 9.66202L6.17059 9.03965C5.75774 7.46834 5.57288 6.63647 5.55439 5.8539C5.55439 5.71834 5.56055 5.58277 5.5852 5.45953L5.41266 4.90495C5.04911 3.72801 4.88273 1.53434 6.54647 0.819546C6.86073 0.683982 7.26126 0.603876 7.6125 0.603876C8.27799 0.603876 8.76479 0.899652 8.91268 1.4111C9.40564 3.12413 10.0034 8.13384 10.0157 8.84863L10.2313 13.1312C10.3792 12.9957 10.5333 12.8663 10.675 12.7553C10.9708 11.1594 11.1803 10.3768 11.5069 9.61272C11.6609 9.243 11.852 8.92258 12.0738 8.63912L12.0861 8.11535C12.1231 6.70426 12.3696 5.58893 12.5729 4.90495C12.6469 4.64615 12.7639 4.40583 12.9118 4.19016L12.9365 3.57396C12.9365 3.45688 13.072 0.727116 15.0192 0.480636C15.1425 0.46215 15.2472 0.46215 15.3335 0.46215C16.2701 0.46215 16.874 0.973596 16.9541 1.82395C16.9541 1.87941 16.9603 1.93487 16.9603 1.99649C16.9603 2.09508 16.9603 2.19367 16.9479 2.30459H16.8925Z" fill="#D80D83"/>
<path d="M2.80014 16.4775C2.75084 16.4344 2.68922 16.4036 2.6276 16.3728C2.58447 16.3543 2.53517 16.3358 2.49204 16.3235C2.44274 16.3112 2.39344 16.2988 2.33799 16.2988C2.31334 16.2988 2.28253 16.2988 2.25172 16.2988C2.20858 16.2988 2.16545 16.2988 2.12232 16.305C2.09767 16.305 2.07918 16.305 2.05453 16.3173C2.02989 16.3173 1.99908 16.3296 1.96827 16.3358C1.882 16.3604 1.78957 16.3974 1.69098 16.4467C1.67249 16.459 1.64784 16.4714 1.62936 16.4837C1.50612 16.57 1.40752 16.6994 1.27196 16.8657C1.25347 16.8842 1.24115 16.9089 1.22266 16.9274C1.12407 17.0506 1.07478 17.2108 1.06245 17.3833C1.05013 17.5312 1.06245 17.6914 1.0871 17.8517C1.16721 18.3569 1.38904 18.8561 1.42601 18.9546C1.59238 19.4414 1.85735 19.8851 2.15929 20.3103C2.22707 20.4027 2.29485 20.5013 2.3688 20.5937C2.41809 20.6615 2.47355 20.7293 2.52285 20.7971C2.56598 20.8525 2.60911 20.908 2.64609 20.9635C2.73852 21.0805 2.82478 21.1976 2.91721 21.3147C2.9357 21.3393 2.95419 21.3578 2.97267 21.3825C2.985 21.401 2.99732 21.4133 3.00964 21.4318C3.05894 21.4872 3.10207 21.5427 3.15137 21.5981C3.17602 21.629 3.20067 21.6536 3.22531 21.6844C3.53341 22.011 3.84151 22.2205 4.14961 22.2513C4.22356 22.2636 4.29134 22.2698 4.35296 22.2698C4.66106 22.2698 4.9137 22.1527 5.08008 21.9864C5.08008 21.9864 5.08008 21.9864 5.08008 21.9802C5.12937 21.9309 5.16634 21.8816 5.19715 21.8261C5.21564 21.7953 5.22796 21.7645 5.24029 21.7275C5.25261 21.6967 5.26494 21.6598 5.2711 21.629C5.34504 21.3024 5.17251 20.9388 4.64257 20.7909C4.61793 20.7848 4.59328 20.7786 4.56863 20.7724C4.54398 20.7724 4.51933 20.7724 4.49469 20.7724C4.45155 20.7724 4.40226 20.7724 4.35912 20.7848C4.24821 20.8094 4.13729 20.8649 4.03254 20.9327C4.01405 20.945 3.9894 20.9573 3.97092 20.9758C3.83535 21.0744 3.72444 21.1915 3.63817 21.29C3.62584 21.3085 3.61352 21.327 3.59503 21.3393L3.43482 21.2592L3.33007 21.2038C3.35472 21.1545 3.39785 21.0805 3.47796 20.9696C3.52725 20.908 3.58271 20.8279 3.66282 20.7416C3.66282 20.7416 3.67514 20.7293 3.67514 20.7231C3.74292 20.6492 3.81687 20.5691 3.9093 20.4767C3.43482 20.2055 3.02813 19.8666 2.84943 19.3367C2.80014 19.1888 2.76933 19.0348 2.757 18.8622C2.757 18.8006 2.757 18.7451 2.757 18.6835C2.757 18.6219 2.757 18.5603 2.76933 18.4925C2.76933 18.4494 2.78165 18.4001 2.79397 18.3508C2.8063 18.3015 2.81862 18.2522 2.83711 18.1967C2.85559 18.1413 2.87408 18.092 2.89873 18.0365C2.91105 18.0119 2.92338 17.9811 2.9357 17.9564C2.96035 17.9009 2.99732 17.8455 3.02813 17.79C3.04662 17.7654 3.0651 17.7346 3.08359 17.7099C3.14521 17.6298 3.21915 17.5497 3.29926 17.4696C3.38553 17.3957 3.47796 17.3217 3.59503 17.2539C3.58271 17.2355 3.57039 17.2231 3.55806 17.2046C3.3732 16.9582 3.00348 16.6562 2.78781 16.4898L2.80014 16.4775Z" fill="#D80D83"/>
<path d="M28.8718 23.8348L24.4906 14.1666C24.4167 14.0003 24.2503 13.8955 24.0654 13.8955H19.8444C19.5733 13.8955 19.3885 14.179 19.5055 14.4193L27.054 30.0708C27.1156 30.2002 27.245 30.2803 27.3929 30.2803H30.6834C30.8313 30.2803 30.9607 30.2002 31.0223 30.0708L38.5708 14.4193C38.6878 14.1728 38.5091 13.8955 38.2319 13.8955H34.0109C33.826 13.8955 33.6596 14.0003 33.5857 14.1666L29.2045 23.8348C29.1367 23.9827 28.9272 23.9827 28.8656 23.8348H28.8718Z" fill="#D80D83"/>
<path d="M70.4768 13.501C65.3315 13.501 61.166 17.3769 61.166 22.1524C61.166 26.928 65.3315 30.8039 70.4768 30.8039C74.3465 30.8039 77.6678 28.6102 79.0666 25.4861C79.1221 25.3628 79.0297 25.2273 78.8941 25.2273H74.211C74.1124 25.2273 74.0199 25.2642 73.9522 25.332C73.0648 26.17 71.8324 26.6877 70.4706 26.6877C68.3447 26.6877 66.5331 25.4244 65.8676 23.656C65.8245 23.5389 65.9108 23.4095 66.0402 23.4095H79.3562C79.5411 23.4095 79.7013 23.2739 79.726 23.089C79.7629 22.7809 79.7814 22.4667 79.7814 22.1524C79.7814 21.5362 79.7136 20.9323 79.5781 20.3531C78.6846 16.4341 74.9504 13.501 70.4706 13.501H70.4768ZM66.2928 20.3531C66.1511 20.3531 66.0648 20.2052 66.1264 20.082C66.9336 18.6154 68.5789 17.611 70.4706 17.611C72.3624 17.611 74.0076 18.6154 74.8148 20.082C74.8826 20.2052 74.7902 20.3531 74.6485 20.3531H66.2866H66.2928Z" fill="#D80D83"/>
<path d="M50.3645 13.3658C48.6145 13.3658 46.9816 13.8526 45.6075 14.6968C45.4842 14.7707 45.324 14.6845 45.324 14.5427V9.15716C45.324 8.91068 45.0775 8.73198 44.8372 8.80593L40.9736 9.99519C40.8196 10.0445 40.7148 10.1862 40.7148 10.3464V29.9539C40.7148 30.1573 40.8812 30.3236 41.0907 30.3236H44.7386C44.942 30.3236 45.1083 30.1634 45.1145 29.9601V29.4918C45.1207 29.3439 45.287 29.2638 45.4103 29.3439C46.8337 30.2682 48.5344 30.8104 50.3769 30.8104C55.3311 30.8104 59.3426 26.9037 59.3426 22.085C59.3426 17.2664 55.3249 13.3596 50.3769 13.3596M49.9517 26.6326C47.3698 26.6326 45.2747 24.5991 45.2747 22.085C45.2747 19.5709 47.3698 17.5375 49.9517 17.5375C52.5336 17.5375 54.6286 19.5709 54.6286 22.085C54.6286 24.5991 52.5336 26.6326 49.9517 26.6326Z" fill="#D80D83"/>
<path d="M91.0585 17.4074V14.2463C91.0585 14.043 90.8922 13.8766 90.6888 13.8766H86.5911C86.4863 13.8766 86.4062 13.7965 86.4062 13.6917V9.15032C86.4062 8.90384 86.1659 8.72515 85.9256 8.79909L82.0127 10.0192C81.8587 10.0685 81.7539 10.2102 81.7539 10.3704V22.0967C81.7539 26.9092 85.2909 30.8036 90.4423 30.8036H90.695C90.8983 30.8036 91.0647 30.6372 91.0647 30.4339V27.014C91.0647 26.8229 90.9168 26.6627 90.7258 26.6442C88.3103 26.4717 86.4124 24.506 86.4124 22.0905V17.9497C86.4124 17.8511 86.4925 17.7648 86.5972 17.7648H90.695C90.8983 17.7648 91.0647 17.5984 91.0647 17.3951L91.0585 17.4074Z" fill="#D80D83"/>
</g>
</g>
<defs>
<clipPath id="clip0_7860_1775">
<rect width="280" height="30.81" fill="white"/>
</clipPath>
<clipPath id="clip1_7860_1775">
<rect width="279.86" height="30.81" fill="white" transform="translate(0.0703125)"/>
</clipPath>
</defs>
</svg>
